<?xml version="1.0" standalone="no"?>
<!DOCTYPE svg PUBLIC "-//W3C//DTD SVG 20010904//EN"
 "http://www.w3.org/TR/2001/REC-SVG-20010904/DTD/svg10.dtd">
<svg version="1.0" xmlns="http://www.w3.org/2000/svg"
 width="750.000000pt" height="750.000000pt" viewBox="0 0 750.000000 750.000000"
 preserveAspectRatio="xMidYMid meet">
<metadata>
Created by potrace 1.14, written by Peter Selinger 2001-2017
</metadata>
<g transform="translate(0.000000,750.000000) scale(0.100000,-0.100000)"
fill="#000000" stroke="none">
<path d="M3520 7494 c-508 -37 -970 -161 -1415 -379 -275 -135 -465 -254 -700
-440 -635 -502 -1104 -1242 -1299 -2045 -75 -313 -101 -534 -101 -880 0 -278
9 -387 51 -634 161 -957 708 -1835 1494 -2402 535 -386 1139 -616 1825 -696
144 -16 606 -16 750 0 485 57 885 174 1295 378 894 446 1562 1211 1880 2153
321 950 250 1982 -197 2875 -316 631 -773 1132 -1383 1516 -155 97 -503 267
-675 328 -277 99 -587 174 -865 207 -129 15 -544 27 -660 19z m-458 -1474
c380 -36 713 -182 953 -417 42 -41 75 -79 73 -83 -2 -5 -99 -97 -216 -205
l-214 -196 -47 44 c-280 262 -654 349 -1035 241 -193 -55 -372 -181 -479 -338
-62 -90 -137 -262 -137 -313 0 -10 35 -13 167 -13 157 0 168 -1 190 -22 30
-28 30 -74 1 -105 -21 -22 -26 -23 -205 -23 l-183 0 0 -74 0 -75 186 -3 c181
-3 186 -4 205 -27 24 -30 24 -72 0 -102 -19 -23 -25 -24 -194 -29 l-174 -5 22
-75 c82 -274 287 -486 565 -582 132 -45 297 -63 462 -48 125 11 222 35 334 82
l74 31 0 138 0 139 -212 0 c-203 0 -215 1 -263 24 -64 30 -121 87 -151 151
-18 39 -24 67 -24 126 0 128 63 225 181 279 39 17 67 20 255 20 128 0 214 4
220 10 7 7 127 9 340 8 l329 -3 5 -685 5 -686 650 686 651 685 372 3 c239 1
372 -1 372 -8 0 -5 -268 -298 -596 -651 -327 -353 -598 -647 -600 -654 -3 -7
279 -372 627 -812 347 -439 636 -804 642 -810 7 -10 -72 -13 -389 -13 l-399 1
-470 576 -469 577 -198 -205 -198 -204 0 -372 0 -373 -340 0 -340 0 0 713 0
714 -102 -24 c-286 -64 -573 -68 -850 -12 -507 102 -925 440 -1109 898 -38 97
-84 260 -91 326 l-3 30 -171 5 c-197 6 -214 12 -214 80 0 68 18 75 206 78
l164 3 0 75 0 74 -161 0 c-88 0 -169 4 -179 10 -29 15 -40 61 -24 98 7 18 14
33 16 34 2 1 84 4 182 7 l179 6 18 90 c159 780 899 1269 1791 1185z"/>
</g>
</svg>
